<svg width="15" height="12" viewBox="0 0 15 12" fill="none" xmlns="http://www.w3.org/2000/svg">
<path d="M15 6.11223C14.8826 6.36045 14.6826 6.44459 14.4098 6.43159C14.0967 6.41629 13.7836 6.42432 13.4728 6.43159C13.4075 6.43435 13.3454 6.45939 13.2971 6.50234C11.4932 8.26451 9.69096 10.0282 7.89026 11.7934C7.6108 12.0669 7.39005 12.0673 7.11294 11.7961C5.30806 10.0281 3.50253 8.26056 1.69635 6.49355C1.65089 6.45418 1.59269 6.43171 1.53197 6.43006C1.18519 6.42432 0.838797 6.42776 0.492017 6.427C0.197292 6.427 -0.002712 6.248 2.78018e-05 5.99175C0.0027676 5.74199 0.201598 5.56835 0.48732 5.56682C0.661102 5.56682 0.834883 5.56682 1.02549 5.56682C0.555815 4.58158 0.477535 3.58639 0.835275 2.57208C1.11591 1.77425 1.63177 1.14891 2.33316 0.659736C3.61656 -0.234096 5.97827 -0.391291 7.50864 1.29425C8.26287 0.500246 9.18579 0.0474016 10.3001 0.00227014C11.1823 -0.0332996 11.9913 0.193505 12.7123 0.694541C13.5025 1.243 14.0282 1.97849 14.2646 2.89986C14.4994 3.81358 14.3938 4.69747 13.9714 5.56606C14.1303 5.56606 14.2709 5.576 14.4098 5.56606C14.6838 5.54311 14.8834 5.6349 15 5.88351V6.11223ZM7.46324 6.52147C7.50238 6.45951 7.529 6.41629 7.55483 6.3723C7.99372 5.62241 8.43248 4.87251 8.87111 4.12262C9.08364 3.75965 9.46486 3.74933 9.69305 4.1012C9.98621 4.55251 10.2801 5.00383 10.5682 5.45782C10.6167 5.53431 10.6641 5.57256 10.7639 5.57027C11.452 5.56491 12.1402 5.56491 12.8286 5.57027C12.8665 5.57329 12.9045 5.56528 12.9378 5.54724C12.9711 5.52921 12.9982 5.50195 13.0156 5.46891C13.407 4.8604 13.5785 4.20026 13.4791 3.48581C13.3186 2.33304 12.6837 1.50805 11.5866 1.07854C10.4895 0.649027 9.43903 0.822668 8.51024 1.5551C8.26444 1.74901 8.05347 1.98576 7.8245 2.20071C7.62411 2.38888 7.37204 2.38812 7.17321 2.19841C7.00491 2.03854 6.84405 1.8714 6.67418 1.71344C5.96261 1.04985 5.11719 0.768357 4.14143 0.887688C1.93159 1.15771 0.759735 3.65371 1.98482 5.47044C2.00301 5.50308 2.03054 5.52983 2.06405 5.54743C2.09755 5.56502 2.13558 5.57269 2.17347 5.5695C2.63258 5.56529 3.0913 5.56338 3.55002 5.5695C3.66196 5.5695 3.71011 5.53125 3.7512 5.43564C4.09016 4.63398 4.43224 3.83232 4.7845 3.03487C4.83329 2.92224 4.9136 2.82533 5.01621 2.75529C5.23774 2.6176 5.49646 2.72125 5.63071 2.97942C6.03985 3.76654 6.44782 4.55404 6.85461 5.34193L7.46324 6.52147ZM7.48085 10.903L12.0516 6.42815C11.5428 6.42815 10.9995 6.42547 10.4582 6.42815C10.3653 6.43331 10.2728 6.41281 10.1912 6.36898C10.1097 6.32514 10.0424 6.25976 9.99716 6.18031C9.79403 5.85941 9.5858 5.54196 9.37914 5.22413C9.35801 5.19162 9.33178 5.16179 9.30086 5.12201C9.26603 5.17976 9.24137 5.22069 9.2171 5.26161L7.87147 7.56179C7.86443 7.57403 7.8566 7.58626 7.84955 7.60003C7.75992 7.76488 7.62528 7.86776 7.42919 7.86088C7.2331 7.85399 7.10981 7.74614 7.02331 7.579C6.46126 6.48743 5.89764 5.39688 5.33246 4.30735C5.31015 4.26451 5.28471 4.22321 5.25105 4.16431C5.22209 4.22971 5.20291 4.27293 5.18412 4.31729L4.50426 5.9011C4.28155 6.41973 4.26746 6.42853 3.69406 6.42853H2.91126C4.44868 7.93469 5.97188 9.4262 7.48085 10.903Z" fill="#4C5862"/>
</svg>
